<svg xmlns="http://www.w3.org/2000/svg" version="1.1" xmlns:xlink="http://www.w3.org/1999/xlink" xmlns:svgjs="http://svgjs.dev/svgjs" width="1000" height="623" viewBox="0 0 1000 623"><g transform="matrix(1,0,0,1,-0.6060606060606233,0.2522267206477409)"><svg viewBox="0 0 396 247" data-background-color="#ffffff" preserveAspectRatio="xMidYMid meet" height="623" width="1000" xmlns="http://www.w3.org/2000/svg" xmlns:xlink="http://www.w3.org/1999/xlink"><g id="tight-bounds" transform="matrix(1,0,0,1,0.2400000000000091,-0.09999999999999432)"><svg viewBox="0 0 395.52 247.2" height="247.2" width="395.52"><g><svg></svg></g><g><svg viewBox="0 0 395.52 247.2" height="247.2" width="395.52"><g transform="matrix(1,0,0,1,75.54432000000001,76.82924446298227)"><svg viewBox="0 0 244.43135999999996 93.54151107403544" height="93.54151107403544" width="244.43135999999996"><g><svg viewBox="0 0 244.43135999999996 93.54151107403544" height="93.54151107403544" width="244.43135999999996"><g><svg viewBox="0 0 244.43135999999996 93.54151107403544" height="93.54151107403544" width="244.43135999999996"><g><svg viewBox="0 0 244.43135999999996 93.54151107403544" height="93.54151107403544" width="244.43135999999996"><g id="textblocktransform"><svg viewBox="0 0 244.43135999999996 93.54151107403544" height="93.54151107403544" width="244.43135999999996" id="textblock"><g><svg viewBox="0 0 244.43135999999996 93.54151107403544" height="93.54151107403544" width="244.43135999999996"><g transform="matrix(1,0,0,1,0,0)"><svg width="244.43135999999996" viewBox="-12.149999618530273 -34.75 95.88999938964844 36.70000076293945" height="93.54151107403544" data-palette-color="#97978d"><path d="M23.2-1.25L23.2-1.25Q23.2-0.75 24.03-0.75 24.85-0.75 26.95-1.73 29.05-2.7 30.65-3.7L30.65-3.7 32.25-4.7Q32.3-4.6 32.3-4.3 32.3-4 31.85-3.8L31.85-3.8Q25.1 0.8 22.45 0.8L22.45 0.8Q21.15 0.8 21.15-0.5 21.15-1.8 23.3-5.45L23.3-5.45 32.1-20.75Q32.1-20.9 31.93-20.9 31.75-20.9 31.25-20.43 30.75-19.95 22.13-11.15 13.5-2.35 12-0.8L12-0.8Q11.15 0.2 10.5 0.2L10.5 0.2Q9.95 0.2 9.95-0.45L9.95-0.45Q9.95-1.95 16.53-11.93 23.1-21.9 23.35-23.1L23.35-23.1Q23.35-23.25 23.23-23.25 23.1-23.25 22.38-22.53 21.65-21.8 12-11.75 2.35-1.7 0.8 0.05L0.8 0.05Q0.4 0.35-0.08 0.35-0.55 0.35-0.55-0.1L-0.55-0.1Q-0.55-0.45-0.1-1.2 0.35-1.95 1.18-3.35 2-4.75 4.13-8.65 6.25-12.55 7.88-16 9.5-19.45 10.83-23.4 12.15-27.35 12.15-29.85L12.15-29.85Q12.15-34 8.55-34L8.55-34Q4.4-34-0.23-31.63-4.85-29.25-7.75-26.15-10.65-23.05-10.65-20.8L-10.65-20.8Q-10.65-18.2-6.43-18.2-2.2-18.2 1.63-20.83 5.45-23.45 7.05-26.45L7.05-26.45Q7.3-26.75 7.45-26.75 7.6-26.75 7.6-26.08 7.6-25.4 6.5-23.75 5.4-22.1 3.63-20.43 1.85-18.75-0.88-17.55-3.6-16.35-6.45-16.35L-6.45-16.35Q-12.15-16.35-12.15-20.1L-12.15-20.1Q-12.15-22.15-10.35-24.68-8.55-27.2-5.65-29.45-2.75-31.7 1.38-33.23 5.5-34.75 9.6-34.75L9.6-34.75Q14.25-34.75 14.25-29.9L14.25-29.9Q14.25-27.4 13.03-23.7 11.8-20 10.1-16.5L10.1-16.5Q6.65-9.65 3.6-4.9L3.6-4.9 2.4-2.95Q2.6-3.05 7.3-7.95L7.3-7.95Q22.85-24.05 24.2-25.4L24.2-25.4Q25.15-25.4 25.35-25.15 25.55-24.9 25.55-24.8L25.55-24.8 25.55-24.75Q25.55-23.4 16.5-9.2L16.5-9.2Q13-3.75 12.7-3.25L12.7-3.25 12.25-2.25Q12.65-2.25 17.4-7.28 22.15-12.3 27.03-17.32 31.9-22.35 32.6-22.35L32.6-22.35Q32.9-22.35 33.25-22.08 33.6-21.8 33.6-21.5 33.6-21.2 33.45-20.9L33.45-20.9 24.5-4.7Q23.2-2.3 23.2-1.25ZM39.8-15.25L39.8-15.25Q40.55-15.25 40.55-14.5 40.55-13.75 39.85-12.98 39.15-12.2 38.3-12.2L38.3-12.2Q37.6-12.2 37.6-13.18 37.6-14.15 38.4-14.7 39.2-15.25 39.8-15.25ZM35.1-8.65L35.1-8.65Q35.35-9.05 35.8-9.05 36.25-9.05 36.7-8.6L36.7-8.6Q36.7-8.4 36.05-7.7 35.4-7 33.85-4.58 32.3-2.15 32.3-1.35L32.3-1.35Q32.3-0.85 33.05-0.75L33.05-0.75Q34.05-0.75 36.15-1.73 38.25-2.7 39.85-3.7L39.85-3.7 41.45-4.7Q41.5-4.6 41.5-4.3 41.5-4 41.05-3.8L41.05-3.8Q34.3 0.8 31.65 0.8L31.65 0.8Q30.35 0.8 30.35-0.5 30.35-1.8 31.77-4.13 33.2-6.45 35.1-8.65ZM43.05-5.45L43.05-5.45Q40.65-3.25 40-3.25L40-3.25Q39.8-3.25 39.8-3.45 39.8-3.65 39.95-3.8L39.95-3.8Q41.15-4.45 42.75-5.9L42.75-5.9Q42.5-6.5 42.5-7.2L42.5-7.2Q42.5-8.9 44.25-10.45 46-12 47.2-12L47.2-12Q47.85-12 47.85-11.38 47.85-10.75 45.85-8.35L45.85-8.35Q45.65-8.1 45.4-7.85 45.15-7.6 44.87-7.28 44.6-6.95 44.45-6.8L44.45-6.8Q44.7-6.55 45.35-5.93 46-5.3 46.4-4.9L46.4-4.9Q47.5-3.8 47.5-2.15 47.5-0.5 45.45 0.73 43.4 1.95 41.17 1.95 38.95 1.95 38.95 0.63 38.95-0.7 41-1.8 43.05-2.9 45.3-3.3L45.3-3.3Q45-3.7 44.17-4.35 43.35-5 43.05-5.45ZM45.65-2.7Q43.95-2.5 42.45-1.78 40.95-1.05 40.95-0.08 40.95 0.9 42.32 0.9 43.7 0.9 44.77 0.25 45.85-0.4 45.85-1.2 45.85-2 45.65-2.7L45.65-2.7ZM44.1-7.2L44.1-7.2 45.4-8.6Q46.7-10.15 46.7-10.48 46.7-10.8 46.4-10.8L46.4-10.8Q45.55-10.8 44.65-9.98 43.75-9.15 43.75-8.38 43.75-7.6 44.1-7.2ZM59.29-5.95L59.29-5.95Q58.99-5.95 58.99-6.3L58.99-6.3 59.14-6.65Q60.04-7.5 60.04-8.1L60.04-8.1Q60.04-8.85 59.24-8.85L59.24-8.85Q57.49-8.85 54.52-6.43 51.54-4 51.54-2.1L51.54-2.1Q51.54-1.3 52.59-1.3 53.64-1.3 55.02-2.18 56.39-3.05 57.37-3.93 58.34-4.8 58.44-4.8L58.44-4.8Q58.94-4.75 58.94-4.3L58.94-4.3Q58.94-4.1 58.17-3 57.39-1.9 57.39-1.25L57.39-1.25Q57.39-0.75 58.22-0.75 59.04-0.75 61.14-1.73 63.24-2.7 64.84-3.7L64.84-3.7 66.44-4.7Q66.49-4.6 66.49-4.3 66.49-4 66.04-3.8L66.04-3.8Q59.29 0.8 56.64 0.8L56.64 0.8Q55.34 0.8 55.34-0.5L55.34-0.5Q55.34-1.05 55.54-1.65L55.54-1.65Q55.19-1.25 53.47-0.43 51.74 0.4 50.39 0.4 49.04 0.4 49.04-0.85L49.04-0.85Q49.04-3.8 53.14-6.88 57.24-9.95 60.04-9.95L60.04-9.95Q61.69-9.95 61.69-8.55L61.69-8.55Q61.69-7.75 60.69-6.85 59.69-5.95 59.29-5.95ZM66.34 0.8L66.34 0.8Q64.09 0.8 64.09-1.65L64.09-1.65Q64.09-4.9 67.62-10.98 71.14-17.05 75.67-21.88 80.19-26.7 82.79-26.7L82.79-26.7Q83.74-26.7 83.74-25.35L83.74-25.35Q83.74-23.25 80.22-18.5 76.69-13.75 72.64-9.6 68.59-5.45 66.39-3.9L66.39-3.9Q66.29-3.1 66.29-2.83 66.29-2.55 66.34-2.2 66.39-1.85 66.74-1.3 67.09-0.75 67.92-0.75 68.74-0.75 70.84-1.73 72.94-2.7 74.54-3.7L74.54-3.7 76.14-4.7Q76.19-4.6 76.19-4.3 76.19-4 75.74-3.8L75.74-3.8Q68.99 0.8 66.34 0.8ZM81.94-24.15L81.94-24.15Q81.89-25.25 81.29-25.25L81.29-25.25Q79.74-25.25 76.59-21.75 73.44-18.25 70.49-13.38 67.54-8.5 66.64-5L66.64-5Q68.74-6.7 72.04-10 75.34-13.3 78.54-17.55 81.74-21.8 81.94-24.15Z" opacity="1" transform="matrix(1,0,0,1,0,0)" fill="#97978d" class="wordmark-text-0" data-fill-palette-color="primary" id="text-0"></path></svg></g></svg></g></svg></g></svg></g></svg></g></svg></g></svg></g><g><path d="M0 123.6c0-68.262 55.338-123.6 123.6-123.6 47.377 0 88.528 26.656 109.274 65.788l-4.799 0c-20.361-36.717-59.516-61.57-104.475-61.57-65.933 0-119.382 53.449-119.382 119.382 0 65.933 53.449 119.382 119.382 119.382 44.959 0 84.114-24.853 104.475-61.57l4.799 0c-20.746 39.132-61.897 65.788-109.274 65.788-68.262 0-123.6-55.338-123.6-123.6z" fill="#97978d" stroke="transparent" data-fill-palette-color="tertiary"></path></g></svg></g><defs></defs></svg><rect width="395.52" height="247.2" fill="none" stroke="none" visibility="hidden"></rect></g></svg></g></svg>